PathFileType	4	(X/Y/Z)	C:\Users\Basilio\Documents\Thesis Gigler\squatting_fais\c3dfiles\019\SLS_back_pre1\markers_experimental.trc
DataRate	CameraRate	NumFrames	NumMarkers	Units	OrigDataRate	OrigDataStartFrame	OrigNumFrames
200.000000	200.000000	4	59	mm	200.000000	1261	1442
Frame#	Time	LBHD			RBHD			C7			T10			CLAV			LSHO			LUUPA			LMUPA			LDUPA			LLEP			LMEP			LRAD			LUL			LRFIN			RSHO			RUPA1			RMUPA			RDUPA			RLEP			RMEP			RRAD			RUL			RUFIN			LASI			RASI			USACR			LSACR			RSACR			LTHI1			LTHI2			LTHI3			LTHI4			LLFC			LTIB1			LTIB2			LTIB3			LTIB4			LLMAL			LMMAL			LHEE			LMT1			LMT2			LMT5			RTHI2			RTHI4			RLFC			RTIB1			RTIB2			RTIB3			RTIB4			RLMAL			RMMAL			RHEE			RMT1			RMT2			RMT5			FHD			RTHI			RTHI3			
		X1	Y1	Z1	X2	Y2	Z2	X3	Y3	Z3	X4	Y4	Z4	X5	Y5	Z5	X6	Y6	Z6	X7	Y7	Z7	X8	Y8	Z8	X9	Y9	Z9	X10	Y10	Z10	X11	Y11	Z11	X12	Y12	Z12	X13	Y13	Z13	X14	Y14	Z14	X15	Y15	Z15	X16	Y16	Z16	X17	Y17	Z17	X18	Y18	Z18	X19	Y19	Z19	X20	Y20	Z20	X21	Y21	Z21	X22	Y22	Z22	X23	Y23	Z23	X24	Y24	Z24	X25	Y25	Z25	X26	Y26	Z26	X27	Y27	Z27	X28	Y28	Z28	X29	Y29	Z29	X30	Y30	Z30	X31	Y31	Z31	X32	Y32	Z32	X33	Y33	Z33	X34	Y34	Z34	X35	Y35	Z35	X36	Y36	Z36	X37	Y37	Z37	X38	Y38	Z38	X39	Y39	Z39	X40	Y40	Z40	X41	Y41	Z41	X42	Y42	Z42	X43	Y43	Z43	X44	Y44	Z44	X45	Y45	Z45	X46	Y46	Z46	X47	Y47	Z47	X48	Y48	Z48	X49	Y49	Z49	X50	Y50	Z50	X51	Y51	Z51	X52	Y52	Z52	X53	Y53	Z53	X54	Y54	Z54	X55	Y55	Z55	X56	Y56	Z56	X57	Y57	Z57	X58	Y58	Z58	X59	Y59	Z59	

1262	6.305	-397.2375488281251	1690.134887695313	-785.442810058594	-406.8698730468751	1683.40234375	-645.9482421875001	-433.5307006835939	1507.40283203125	-706.7030029296876	-451.5441894531251	1212.411743164063	-708.8533935546876	-292.0169067382813	1469.877807617188	-710.9088134765626	-355.0353698730469	1512.49755859375	-849.2021484375002	-229.0072479248047	1466.222412109375	-902.4956665039065	-204.5445404052735	1462.965698242188	-860.7510375976565	-163.1686401367188	1456.234741210938	-904.2215576171877	-95.43833923339845	1412.202880859375	-930.466735839844	-104.1273651123047	1357.510986328125	-908.9192504882815	144.0981750488282	1425.267333984375	-849.8704223632815	150.8552856445313	1378.730834960938	-895.8555297851565	218.8709716796876	1439.53564453125	-850.4049072265627	-344.1111450195313	1503.2265625	-578.0667114257814	-233.6532440185547	1408.489379882813	-482.8322143554689	-203.3250732421876	1438.669677734375	-510.3318481445314	-167.0514373779297	1397.565673828125	-484.1394042968751	-91.05533599853517	1382.9609375	-493.4193115234376	-105.0303573608399	1332.0263671875	-515.3513793945314	152.6229705810547	1414.305419921875	-554.1922607421876	163.038558959961	1366.123657226563	-511.4697265625001	235.2335205078126	1425.327026367188	-542.2583618164064	-292.5115661621094	1029.102783203125	-843.8271484375002	-272.4442443847657	1007.640869140625	-638.6369018554689	-445.2236633300782	1079.538696289063	-721.4040527343751	-451.6214599609376	1049.443359375	-752.3818969726564	-444.6765747070314	1045.605834960938	-695.5290527343751	-259.0768432617188	789.2720336914065	-943.3947753906252	-189.1242370605469	739.0789794921876	-950.7365722656252	-149.8630828857422	760.3747558593751	-933.4724731445315	-188.0648651123047	678.0928955078126	-947.0654296875002	-162.9004211425782	599.7427978515626	-936.7464599609377	-226.2477416992188	479.8389282226564	-900.2189941406252	-292.2463684082032	503.314422607422	-954.7440185546877	-276.4146728515626	471.7486572265626	-928.6784667968752	-348.3464355468751	441.6627197265626	-889.9588012695315	-496.1925048828126	439.4384765625001	-914.6472778320315	-475.2332763671876	433.7720336914064	-830.1104736328127	-557.5137329101564	481.6368103027345	-865.1384887695315	-484.0674133300782	284.2573547363282	-827.790466308594	-483.200653076172	277.7396240234376	-867.8338623046877	-525.8445434570314	299.8345947265626	-918.4643554687502	-274.0274353027344	747.0440063476564	-591.7154541015626	-301.1544799804688	671.3934326171876	-596.3308105468751	-340.9260864257813	512.3140258789064	-637.0008544921876	-304.0648803710938	335.9958190917969	-711.8068847656251	-355.5346679687501	251.0877380371094	-661.9344482421876	-323.1324157714844	252.2952117919922	-695.6457519531251	-334.1911315917969	215.1488494873047	-740.6525268554689	-393.9685668945314	125.4931106567383	-702.6533813476564	-379.8041076660157	136.7146759033203	-776.8167114257815	-457.7763061523439	106.0636138916016	-753.6478881835939	-260.4124450683594	57.15087127685548	-784.755798339844	-254.3141784667969	59.85567474365236	-739.1896362304689	-292.9727783203126	47.59591293334962	-683.8789672851564	-273.4572753906251	1715.109497070313	-636.8890380859376	-313.2333984375001	799.9086914062502	-580.2587280273439	-249.2833862304688	755.5979614257814	-614.4583740234376	
1263	6.31	-397.6098022460939	1690.097412109375	-785.215270996094	-407.0447692871095	1683.097412109375	-645.7674560546876	-433.7772521972657	1507.350341796875	-706.5367431640626	-451.6255187988282	1212.381591796875	-708.9279785156251	-292.0965881347657	1469.819946289063	-710.7937622070314	-355.1551818847657	1512.544921875	-849.0870361328127	-229.0561523437501	1466.279541015625	-902.4112548828127	-204.6658172607422	1463.051391601563	-860.706970214844	-163.3649444580078	1456.330200195313	-904.1736450195315	-95.51558685302736	1412.303955078125	-930.4514770507815	-104.2230072021485	1357.65185546875	-908.9049072265627	143.9599609375	1425.387084960938	-849.9802856445315	150.7957153320313	1378.762084960938	-895.8947753906252	218.8764343261719	1439.654907226563	-850.416442871094	-344.1242980957032	1503.424926757813	-577.9807739257814	-233.7007293701172	1408.476318359375	-482.7004394531251	-203.3217010498047	1438.576538085938	-510.2829589843751	-167.3569641113282	1397.508178710938	-484.1114501953126	-91.17538452148439	1383.002319335938	-493.4177551269532	-105.2876892089844	1332.2177734375	-515.7653198242189	152.5479431152344	1414.59716796875	-554.0966796875001	162.9523162841797	1366.430908203125	-511.5028381347657	235.0541534423829	1425.719482421875	-542.2877807617189	-292.5286865234376	1029.021362304688	-843.8934326171877	-272.5099792480469	1007.6884765625	-638.7109985351564	-445.2715454101564	1079.528564453125	-721.4880981445314	-451.6476440429689	1049.43994140625	-752.4698486328126	-444.6450805664064	1045.575317382813	-695.6450195312501	-259.0995483398438	789.2596435546877	-943.3723144531252	-189.0529327392578	739.0354003906251	-950.7637939453127	-149.801010131836	760.3157348632814	-933.4514770507815	-187.9727478027344	678.0631713867189	-947.0203247070315	-162.8788604736328	599.7310180664064	-936.6651000976565	-226.1815643310547	479.7696228027345	-900.2471923828127	-292.1478576660157	503.1730041503907	-954.6776123046877	-276.4326477050782	471.6842651367189	-928.6868896484377	-348.3428344726563	441.555633544922	-889.9024658203127	-496.1867980957032	439.4155883789064	-914.7390136718752	-475.1965942382814	433.6414794921876	-830.1334228515627	-557.4813232421876	481.5274353027345	-865.1670532226565	-477.0105590820314	279.3290710449219	-831.0752563476565	-483.0580139160157	277.6624450683594	-867.998962402344	-525.7445678710939	299.7438964843751	-918.5803833007815	-274.0403747558594	747.1157836914064	-591.7562255859376	-301.1332092285157	671.4268188476564	-596.2918090820314	-340.9302062988282	512.3144531250001	-636.9876098632814	-304.0372924804688	336.0093994140626	-711.7697753906251	-355.5962829589844	251.1312866210938	-661.9020385742189	-323.2244262695313	252.3504333496094	-695.5770263671876	-334.1292724609376	215.1506805419922	-740.5083007812501	-393.9451904296876	125.4979248046875	-702.5767211914064	-379.8529968261719	136.8012084960938	-776.8426513671877	-457.9368591308595	106.1376190185547	-753.5806274414064	-260.3993530273438	56.77768707275392	-784.8281250000002	-254.2673645019532	59.88971328735353	-739.1698608398439	-293.0099792480469	47.53230667114259	-683.8902587890626	-273.7701110839844	1715.216674804688	-636.7529907226564	-313.2330932617188	799.9651489257815	-580.2575073242189	-249.2855987548829	755.6566162109376	-614.4638061523439	
1264	6.315	-397.9349365234376	1690.101440429688	-784.9297485351565	-407.3178710937501	1683.046997070313	-645.5084838867189	-433.9683837890626	1507.291259765625	-706.4359741210939	-451.6960449218751	1212.366821289063	-709.0046997070314	-292.2413024902344	1469.794799804688	-710.6528320312501	-355.3242492675782	1512.646484375	-848.9849853515627	-229.2019500732422	1466.452514648438	-902.350769042969	-204.7905273437501	1463.152709960938	-860.7136840820315	-163.5343322753907	1456.454956054688	-904.1085205078127	-95.66894531250001	1412.447143554688	-930.4173583984377	-104.3828964233399	1357.84130859375	-908.8865356445315	143.8621368408203	1425.544311523438	-849.9299316406252	150.7191619873047	1378.860595703125	-895.9610595703127	218.751449584961	1439.687255859375	-850.393493652344	-344.2692871093751	1503.271850585938	-577.8782958984376	-233.8235015869141	1408.493774414063	-482.7403564453126	-203.5896759033204	1438.76025390625	-510.2348937988282	-167.3506927490235	1397.5634765625	-484.1155395507814	-91.21793365478517	1383.142456054688	-493.4301147460939	-105.2126083374024	1332.482177734375	-515.3357543945314	152.4749755859375	1414.806762695313	-554.0459594726564	162.8545074462891	1366.7373046875	-511.4772033691407	234.8813629150391	1426.127197265625	-542.2857666015626	-292.5924682617188	1029.033813476563	-844.005554199219	-272.5036926269532	1007.715087890625	-638.7421875000001	-445.2623291015626	1079.490234375	-721.5813598632814	-451.6914978027345	1049.508422851563	-752.5368041992189	-444.8171691894532	1045.647827148438	-695.7232666015626	-259.0972900390626	789.251403808594	-943.3589477539065	-189.0437774658203	739.0240478515626	-950.7404785156252	-149.8680877685547	760.3659667968751	-933.4372558593752	-187.995834350586	678.0811157226564	-947.0769042968752	-162.8607330322266	599.6959838867189	-936.6431884765627	-226.1272735595704	479.8287353515626	-900.1778564453127	-292.1570434570313	503.1813049316407	-954.6120605468752	-276.3875427246094	471.6513061523439	-928.6716308593752	-348.2631225585938	441.482147216797	-889.8806152343752	-496.1347656250001	439.3081665039064	-914.7937011718752	-474.8296203613282	433.6051330566407	-830.3780517578127	-557.4404296875001	481.3808593750001	-865.1699218750002	-483.2126464843751	283.9284057617188	-828.1765747070315	-482.9459533691407	277.5274353027344	-868.0833129882815	-525.7291259765626	299.6904296875001	-918.6865844726565	-274.1258850097657	747.1611328125001	-591.6310424804689	-301.2417297363282	671.5231933593751	-596.2820434570314	-340.8589172363282	512.3440551757814	-636.9662475585939	-304.0252685546876	336.0245666503907	-711.6231079101564	-355.7026672363282	251.1961822509766	-661.8074340820314	-323.1782836914063	252.3942565917969	-695.4921875000001	-334.0829467773438	215.1798248291016	-740.3745117187501	-394.0120544433595	125.4570083618164	-702.5756225585939	-379.7711181640626	136.7916107177735	-776.7681274414065	-457.8994750976564	106.0957183837891	-753.5610961914064	-260.3997192382813	57.1955909729004	-784.7321777343752	-254.2395935058594	59.84950637817384	-739.1476440429689	-293.0168151855469	47.54003524780274	-683.8962402343751	-274.0613403320313	1715.086303710938	-636.4013671875001	-313.2973327636719	800.023376464844	-580.3967895507814	-249.2643127441407	755.7097167968751	-614.4451293945314	
1265	6.32	-398.2631835937501	1690.140258789063	-784.6572875976565	-407.3235473632814	1682.563354492188	-645.4049072265626	-434.1033325195314	1507.36279296875	-706.2749023437501	-451.8064880371095	1212.295166015625	-709.0598144531251	-292.3166809082032	1469.788940429688	-710.6021118164064	-355.5107116699219	1512.745971679688	-848.9405517578127	-229.2933197021485	1466.462280273438	-902.269958496094	-204.8979034423829	1463.335327148438	-860.6819458007815	-163.5613403320313	1456.552856445313	-904.0447998046877	-95.80916595458986	1412.643188476563	-930.440124511719	-104.4658279418946	1357.959106445313	-908.9160156250002	143.7822570800782	1425.666259765625	-850.020202636719	150.6011047363282	1379.009521484375	-896.004821777344	218.7667083740235	1439.827514648438	-850.4147949218752	-344.6020507812501	1503.573852539063	-577.7803344726564	-233.9235076904297	1408.515747070313	-482.7148437500001	-203.6625976562501	1438.694946289063	-510.1949157714845	-167.4057159423828	1397.598388671875	-484.0350646972657	-91.3757781982422	1383.184692382813	-493.4721069335939	-105.2748413085938	1332.613891601563	-515.1762695312501	152.4176330566407	1414.993774414063	-553.9136962890626	162.7783355712891	1367.059204101563	-511.5532226562501	235.0942840576172	1426.388916015625	-542.3140869140626	-292.5379333496094	1029.0283203125	-844.0865478515627	-272.5275573730469	1007.789489746094	-638.8723144531251	-445.3255920410157	1079.475708007813	-721.6689453125001	-451.5784912109376	1049.416015625	-752.6391601562501	-444.7520141601564	1045.540649414063	-695.8441162109376	-259.0834350585938	789.2445068359377	-943.4089355468752	-189.0521850585938	739.0437011718751	-950.754333496094	-149.8092346191407	760.3319091796876	-933.398864746094	-187.9246978759766	677.9882202148439	-946.995056152344	-162.7845001220703	599.6770019531251	-936.5384521484377	-226.0086364746094	479.7532348632814	-900.1965942382815	-292.0803527832032	503.1157226562501	-954.6934814453127	-276.3212585449219	471.5025024414064	-928.7224121093752	-348.2301025390626	441.4351196289064	-889.9758300781252	-496.0470581054689	439.2243652343751	-914.800964355469	-474.7576599121095	433.497039794922	-830.422058105469	-557.4080200195314	481.2695312500001	-865.2424926757815	-483.021697998047	283.5236816406251	-828.353454589844	-482.8481750488282	277.4949951171876	-868.2161254882815	-525.5661010742189	299.6128234863282	-918.749938964844	-274.1496582031251	747.2369384765626	-591.7085571289064	-301.1099243164063	671.4938964843751	-596.2787475585939	-340.8359680175782	512.3920288085939	-636.9453735351564	-304.0494079589844	336.0749206542969	-711.5145874023439	-355.7018737792969	251.1844482421876	-661.7893676757814	-323.1683044433594	252.3542785644532	-695.3621215820314	-334.0202941894532	215.1229400634766	-740.3048095703126	-394.0070190429689	125.4898834228516	-702.4879760742189	-379.8005371093751	136.79150390625	-776.8356933593752	-457.7744750976564	106.1002502441407	-753.5375976562501	-260.3751831054688	57.21193695068361	-784.6668090820315	-254.3043060302735	59.79360961914064	-739.1668090820314	-292.9645385742188	47.53588104248048	-683.8440551757814	-274.2501525878907	1715.232666015625	-636.2467651367189	-313.2933654785157	800.0708618164065	-580.3923339843751	-249.301986694336	755.7226562500001	-614.4601440429689	
